<?xml version="1.0" encoding="UTF-8"?>
<svg id="Layer_1" xmlns="http://www.w3.org/2000/svg" viewBox="0 0 46.05 49.31">
<defs>
<style>.cls-1{fill:#fff;}</style>
<!-- #231f20 -->
</defs>
<g>
<path class="cls-1" d="M24.69,39.8c-10.73,0-19.71-3.74-20.27-3.98-1.27-.54-1.86-2.01-1.32-3.28,.54-1.27,2.01-1.86,3.28-1.32,.27,.11,19.04,7.86,33.18,.11,1.21-.66,2.73-.22,3.39,.99,.66,1.21,.22,2.73-.99,3.39-5.6,3.07-11.67,4.09-17.27,4.09Z"/>
<path class="cls-1" d="M11.55,38.01c-.14,0-.27-.01-.41-.03-2.91-.48-5.45-2.85-7.15-6.67C1.41,25.5,.75,15.93,5.42,8.65c.6-.94,1.29-1.82,2.03-2.62,.9-.96,1.91-1.83,3-2.57C13.83,1.17,18.04,0,22.95,0c9.36,0,17.88,4.57,19.83,10.63,.42,1.31-.3,2.72-1.61,3.15-1.32,.42-2.72-.3-3.15-1.61-1.11-3.46-7.43-7.16-15.07-7.16-3.89,0-7.16,.88-9.7,2.6-.78,.53-1.51,1.15-2.15,1.84-.54,.58-1.04,1.22-1.48,1.91-3.5,5.46-3.19,13.16-1.06,17.93,.95,2.13,2.25,3.58,3.39,3.76,1.36,.22,2.28,1.51,2.06,2.87-.2,1.22-1.26,2.09-2.46,2.09Z"/>
<path class="cls-1" d="M41.55,49.31l-38.73-.66-.62-.43C.77,47.23,0,45.8,0,44.17c.01-4.57,6.67-9.5,8.71-10.9,1.14-.78,2.69-.49,3.47,.64,.78,1.14,.49,2.69-.64,3.48-2.98,2.06-5.8,4.86-6.42,6.29l35.4,.6c.25-.14,.51-.33,.53-.51,.16-1.56-3.37-5.25-4.9-6.3-1.14-.69-1.54-2.15-.9-3.33,.66-1.21,2.17-1.67,3.39-1.01,.08,.04,7.68,5.43,7.41,10.86-.07,1.31-.68,3.71-4.02,5.1l-.48,.2ZM5,44.19h0Zm31.17-6.7s.06,.04,.08,.05c-.03-.02-.06-.03-.08-.05Z"/>
<path class="cls-1" d="M28.83,48.02c-.46,0-.93-.13-1.35-.4-4.32-2.77-8.96-.63-9.8-.2-.44,.37-1,.59-1.62,.59h0c-1.06,0-2.02-.68-2.37-1.69-.35-1.01,.03-2.17,.87-2.83,1.1-.87,8.65-4.55,15.63-.08,1.16,.75,1.5,2.29,.75,3.45-.48,.74-1.28,1.15-2.11,1.15Z"/>
<path class="cls-1" d="M34.81,10.92c-.81,0-1.6-.39-2.08-1.11-1.75-2.62-4.52-4.99-12.89-4.61-1.39,.05-2.55-1-2.61-2.38-.06-1.38,1-2.55,2.38-2.61,8.54-.39,13.87,1.72,17.28,6.83,.77,1.15,.46,2.7-.69,3.47-.43,.28-.91,.42-1.38,.42Z"/>
<path class="cls-1" d="M31.91,13.41c-.68,0-1.36-.28-1.85-.82-3.92-4.31-8.65-6.41-14.48-6.41,0,0-.01,0-.02,0-1.38,0-2.5-1.12-2.5-2.5,0-1.38,1.12-2.5,2.5-2.5h.02c7.21,0,13.33,2.71,18.18,8.05,.93,1.02,.85,2.6-.17,3.53-.48,.43-1.08,.65-1.68,.65Z"/>
<path class="cls-1" d="M37.46,29.45c-3.95,0-7.16-3.21-7.16-7.16s3.21-7.16,7.16-7.16,7.16,3.21,7.16,7.16-3.21,7.16-7.16,7.16Zm0-9.32c-1.19,0-2.16,.97-2.16,2.16s.97,2.16,2.16,2.16,2.16-.97,2.16-2.16-.97-2.16-2.16-2.16Z"/>
<path class="cls-1" d="M16.97,37.84c-.4,0-.8-.1-1.18-.3-1.22-.65-1.68-2.17-1.03-3.38,1.44-2.7,4.51-3.59,6.97-4.31,1.02-.3,2.92-.85,3.17-1.29,.03-.08,.02-.53-.36-1.41-2.14-4.83-1.21-10.06,2.49-13.99,3.89-4.12,9.74-5.81,14.25-4.12,1.29,.49,1.95,1.93,1.46,3.22-.49,1.29-1.93,1.94-3.22,1.46-2.58-.97-6.39,.26-8.85,2.87-1.36,1.44-3.37,4.46-1.56,8.53,.94,2.12,1.05,3.99,.33,5.54-1.15,2.48-3.89,3.28-6.31,3.98-1.64,.48-3.5,1.02-3.95,1.86-.45,.84-1.31,1.32-2.21,1.32Z"/>
<path class="cls-1" d="M27.26,16.79c-.37,0-.74-.08-1.1-.25-3.17-1.55-3.13-4.2-3.11-5.63,.02-1.54,.04-2.65-3.34-4.43-1.22-.64-1.69-2.16-1.04-3.38,.64-1.22,2.16-1.69,3.38-1.04,5.61,2.96,6.04,6.16,6,8.92,0,.32,0,.74,.03,.91,.02,0,.11,.07,.28,.15,1.24,.61,1.75,2.1,1.15,3.34-.43,.89-1.32,1.4-2.25,1.4Z"/>
<path class="cls-1" d="M28.7,16.81c-1.17,0-2.21-.83-2.46-2.02-.07-.35-.4-2.34,.1-7.74,.13-1.37,1.34-2.39,2.72-2.26,1.38,.13,2.39,1.34,2.26,2.72-.43,4.65-.17,6.29-.17,6.31,.28,1.35-.59,2.65-1.94,2.93-.17,.03-.34,.05-.5,.05Z"/>
</g>
<path class="cls-1" d="M27.26,18.47c-1.06,0-2.05-.68-2.38-1.75-.56-1.77-2.58-3.59-5.54-4.98-4.01-1.89-7.88-2.19-9.12-1.69-1.28,.52-2.74-.1-3.26-1.38-.52-1.28,.1-2.74,1.38-3.26,3.44-1.39,9.22-.04,13.13,1.8,4.28,2.02,7.18,4.86,8.18,8,.42,1.32-.31,2.72-1.63,3.14-.25,.08-.5,.12-.75,.12Z"/>
</svg>